<svg width="24" height="24" fill="none" xmlns="http://www.w3.org/2000/svg"><g clip-path="url('#clip0_21779_1127')"><path d="M20.766 23.5h-4.644l.013-7.576h2.463c.52 0 .957-.39 1.018-.905l.328-2.765a1.026 1.026 0 0 0-1.018-1.146H16.12V9.295c0-.503.076-.786.216-.953.124-.147.394-.31 1.08-.31h1.392c.566-.001 1.025-.46 1.025-1.027v-2.33c0-.567-.46-1.026-1.026-1.026H16.54c-1.484 0-2.786.454-3.718 1.376-.933.922-1.44 2.258-1.44 3.912v2.17H9.657c-.568 0-1.028.462-1.026 1.03l.01 2.765c.003.565.461 1.022 1.026 1.022h1.728L11.38 23.5H3.234A2.734 2.734 0 0 1 .5 20.766V3.234A2.734 2.734 0 0 1 3.234.5h17.532A2.734 2.734 0 0 1 23.5 3.234v17.532a2.734 2.734 0 0 1-2.734 2.734Z" stroke="#344F10"/></g><defs><clipPath id="clip0_21779_1127"><path fill="#fff" d="M0 0h24v24H0z"/></clipPath></defs></svg>