<svg width="82" height="77" fill="none" xmlns="http://www.w3.org/2000/svg"><path d="m45.169 76-2.964-5.515m-26.38-49.078 7.41 13.786m0 0 3.4-11.58m-3.4 11.58-11.529-3.309m11.529 3.309 6.52 12.132m0 0 4.603-17.647m-4.602 17.646L14.28 42.913m15.476 4.412 7.706 14.337m0 0 6.162-23.16m-6.162 23.16-21.637-6.066m21.637 6.066 4.743 8.823m0 0c22.378-29.65 26.077-45.606-36.162-68.93" stroke="#344F10"/><path d="M6.03 1C-7.996 67.99 8.357 71.587 42.08 70.486m13.9-22.058 2.059-3.224m11.326-17.73L62.672 37.95m0 0h8.752m-8.752 0-2.574-8.272m2.574 8.272-4.633 7.253m0 0h11.326m-11.326 0-5.663 10.393L65.76 56.7" stroke="#344F10"/><path d="M44.654 67.177c31.251-.436 43.1-7.089 32.616-53.955" stroke="#344F10"/><path d="M77.601 13.688c-11.3 2.618-17.172 4.864-24.71 13.786" stroke="#344F10"/></svg>