<svg width="82" height="77" fill="none" xmlns="http://www.w3.org/2000/svg"><path d="m45.168 75.936-2.964-5.51M15.824 21.39l7.41 13.774m0 0 3.401-11.57m-3.4 11.57-11.53-3.306m11.53 3.306 6.52 12.122m0 0 4.602-17.632m-4.602 17.632L14.28 42.878m15.475 4.408 7.707 14.325m0 0 6.162-23.14m-6.162 23.14-21.638-6.06m21.638 6.06 4.742 8.816m0 0C64.583 40.802 68.282 24.859 6.043 1.555" stroke="#344F10"/><path d="M6.03 1C-7.996 67.932 8.357 71.527 42.08 70.427m13.9-22.039 2.059-3.221M69.365 27.45l-6.693 10.468m0 0h8.752m-8.752 0-2.574-8.264m2.574 8.264-4.633 7.248m0 0h11.326m-11.326 0L52.376 55.55l13.385 1.102" stroke="#344F10"/><path d="M44.654 67.12c31.252-.435 43.1-7.082 32.617-53.908" stroke="#344F10"/><path d="M77.601 13.677c-11.3 2.616-17.172 4.86-24.71 13.774" stroke="#344F10"/></svg>