<svg width="207" height="11" fill="none" xmlns="http://www.w3.org/2000/svg"><path d="M13.342.242 10.514 10H9.086L6.818 2.146 4.466 10l-1.414.014L.322.242H1.68l2.128 8.274L6.16.242h1.428l2.24 8.246L11.97.242h1.372Zm3.368 0V10h-1.274V.242h1.274Zm8.877 0v1.036h-2.66V10h-1.273V1.278H18.98V.242h6.607Zm1.793 4.872c0-.952.214-1.806.644-2.562A4.68 4.68 0 0 1 29.774.76a4.882 4.882 0 0 1 2.478-.644c1.064 0 1.992.257 2.786.77.793.513 1.372 1.241 1.736 2.184h-1.526a3.049 3.049 0 0 0-1.176-1.358c-.504-.317-1.11-.476-1.82-.476-.682 0-1.293.159-1.834.476-.542.317-.966.77-1.274 1.358-.308.579-.462 1.26-.462 2.044 0 .775.154 1.456.462 2.044a3.34 3.34 0 0 0 1.274 1.344c.541.317 1.152.476 1.834.476.71 0 1.316-.154 1.82-.462.513-.317.905-.77 1.176-1.358h1.526c-.364.933-.943 1.657-1.736 2.17-.794.504-1.722.756-2.786.756-.906 0-1.732-.21-2.478-.63a4.709 4.709 0 0 1-1.75-1.778c-.43-.756-.644-1.61-.644-2.562ZM46.888.242V10h-1.274V5.576h-4.97V10H39.37V.242h1.274v4.284h4.97V.242h1.274Zm11.732 9.856c-.905 0-1.731-.21-2.478-.63a4.78 4.78 0 0 1-1.778-1.778c-.43-.765-.644-1.624-.644-2.576s.215-1.806.644-2.562A4.648 4.648 0 0 1 56.142.774 4.882 4.882 0 0 1 58.62.13c.915 0 1.745.215 2.492.644a4.578 4.578 0 0 1 1.764 1.764c.43.756.644 1.615.644 2.576 0 .961-.215 1.82-.644 2.576a4.678 4.678 0 0 1-1.764 1.778c-.747.42-1.577.63-2.492.63Zm0-1.106c.681 0 1.293-.159 1.834-.476.55-.317.98-.77 1.288-1.358.317-.588.476-1.27.476-2.044 0-.784-.159-1.465-.476-2.044a3.318 3.318 0 0 0-1.274-1.358c-.541-.317-1.157-.476-1.848-.476-.69 0-1.307.159-1.848.476-.541.317-.97.77-1.288 1.358-.308.579-.462 1.26-.462 2.044 0 .775.154 1.456.462 2.044.317.588.747 1.04 1.288 1.358.55.317 1.167.476 1.848.476ZM71.418.242v1.036h-4.242v3.29h3.444v1.036h-3.444V10h-1.274V.242h5.516Zm16.569.07V10h-1.274V2.776L83.493 10h-.896l-3.234-7.238V10h-1.274V.312h1.372l3.584 8.008L86.629.312h1.358Zm7.285 9.786c-.906 0-1.732-.21-2.479-.63a4.78 4.78 0 0 1-1.778-1.778c-.429-.765-.644-1.624-.644-2.576s.215-1.806.645-2.562A4.649 4.649 0 0 1 92.793.774 4.882 4.882 0 0 1 95.271.13c.915 0 1.746.215 2.492.644a4.577 4.577 0 0 1 1.764 1.764c.43.756.645 1.615.645 2.576 0 .961-.215 1.82-.644 2.576a4.677 4.677 0 0 1-1.765 1.778c-.746.42-1.577.63-2.492.63Zm0-1.106c.68 0 1.292-.159 1.834-.476.55-.317.98-.77 1.288-1.358.317-.588.475-1.27.475-2.044 0-.784-.158-1.465-.475-2.044a3.318 3.318 0 0 0-1.275-1.358c-.54-.317-1.157-.476-1.847-.476-.691 0-1.307.159-1.849.476-.54.317-.97.77-1.288 1.358-.308.579-.462 1.26-.462 2.044 0 .775.154 1.456.462 2.044.318.588.747 1.04 1.288 1.358.551.317 1.167.476 1.849.476Zm8.527-8.75v6.174c0 .868.21 1.512.63 1.932.43.42 1.022.63 1.778.63.747 0 1.33-.21 1.75-.63.43-.42.644-1.064.644-1.932V.242h1.274v6.16c0 .812-.163 1.498-.49 2.058-.326.55-.77.961-1.33 1.232-.55.27-1.171.406-1.862.406-.69 0-1.316-.135-1.876-.406a3.102 3.102 0 0 1-1.316-1.232c-.317-.56-.476-1.246-.476-2.058V.242h1.274ZM120.373 10h-1.274l-5.124-7.77V10h-1.274V.228h1.274l5.124 7.756V.228h1.274V10ZM129.25.242v1.036h-2.66V10h-1.274V1.278h-2.674V.242h6.608Zm8.037 7.588h-4.256l-.784 2.17h-1.344l3.528-9.702h1.47L139.415 10h-1.344l-.784-2.17Zm-.364-1.036-1.764-4.928-1.764 4.928h3.528Zm6.003-6.552V10h-1.274V.242h1.274ZM153.47 10h-1.274l-5.124-7.77V10h-1.274V.228h1.274l5.124 7.756V.228h1.274V10ZM173.038.242 170.21 10h-1.428l-2.268-7.854L164.162 10l-1.414.014-2.73-9.772h1.358l2.128 8.274 2.352-8.274h1.428l2.24 8.246 2.142-8.246h1.372Zm3.368 0V10h-1.274V.242h1.274ZM186.949 10h-1.274l-5.124-7.77V10h-1.274V.228h1.274l5.124 7.756V.228h1.274V10Zm5.91-9.758c1.064 0 1.983.2 2.758.602a4.091 4.091 0 0 1 1.792 1.694c.42.737.63 1.605.63 2.604 0 .999-.21 1.867-.63 2.604-.411.728-1.008 1.288-1.792 1.68-.775.383-1.694.574-2.758.574h-3.038V.242h3.038Zm0 8.708c1.26 0 2.221-.331 2.884-.994.663-.672.994-1.61.994-2.814 0-1.213-.336-2.16-1.008-2.842-.663-.681-1.619-1.022-2.87-1.022h-1.764V8.95h1.764Zm10.654 1.148c-.644 0-1.222-.112-1.736-.336-.504-.233-.9-.55-1.19-.952a2.48 2.48 0 0 1-.448-1.414h1.358c.047.457.234.845.56 1.162.336.308.822.462 1.456.462.607 0 1.083-.15 1.428-.448.355-.308.532-.7.532-1.176 0-.373-.102-.677-.308-.91a1.965 1.965 0 0 0-.77-.532 12.006 12.006 0 0 0-1.246-.392c-.644-.168-1.162-.336-1.554-.504a2.585 2.585 0 0 1-.994-.784c-.27-.364-.406-.85-.406-1.456 0-.532.136-1.003.406-1.414.271-.41.649-.728 1.134-.952.495-.224 1.06-.336 1.694-.336.915 0 1.662.229 2.24.686.588.457.92 1.064.994 1.82h-1.4c-.046-.373-.242-.7-.588-.98-.345-.29-.802-.434-1.372-.434-.532 0-.966.14-1.302.42-.336.27-.504.653-.504 1.148 0 .355.098.644.294.868.206.224.453.397.742.518.299.112.714.243 1.246.392.644.177 1.162.355 1.554.532a2.51 2.51 0 0 1 1.008.798c.28.355.42.84.42 1.456 0 .476-.126.924-.378 1.344-.252.42-.625.76-1.12 1.022-.494.261-1.078.392-1.75.392Z" fill="#344F10"/></svg>