<svg width="80" height="69" fill="none" xmlns="http://www.w3.org/2000/svg"><path d="m60.701 11.856-4.154 3.001C45.341-.179 39.272-8.203 19.922 18.61l13.593 8.253c1.932-6.453 3.558-9.74 7.552-15.006l4.531 9.004-4.53 3.376c5.48.525 8.416.594 13.215 0 3.253-3.91 4.754-6.507 6.42-12.38ZM51.143 61.979l-.628-5.127c18.399-2.81 28.26-4.39 14.19-34.385l-13.644 8.166c4.685 4.794 6.766 7.808 9.436 13.87l-9.979-.256-.774-5.642c-3.067 4.629-4.525 7.209-6.296 11.763 1.847 4.758 3.387 7.332 7.695 11.61ZM9.04 28.362l4.734 1.93C7.282 47.942 3.866 57.438 36.603 59.526l-.44-16.04c-6.414 1.823-10.027 2.204-16.56 1.63l5.06-8.711 5.25 2.05c-2.512-4.96-4.034-7.501-7.11-11.277-5.007-.672-7.977-.556-13.763 1.183Z" stroke="#344F10"/></svg>