<svg width="80" height="69" fill="none" xmlns="http://www.w3.org/2000/svg"><path d="m60.701 11.837-4.154 2.996C45.341-.177 39.272-8.186 19.922 18.578l13.593 8.238c1.932-6.442 3.558-9.724 7.552-14.98l4.531 8.989-4.53 3.37c5.48.524 8.416.593 13.215 0 3.253-3.904 4.754-6.496 6.42-12.358ZM51.143 61.87l-.628-5.117c18.399-2.806 28.26-4.383 14.19-34.325L51.062 30.58c4.685 4.786 6.766 7.794 9.436 13.846l-9.979-.256-.774-5.632c-3.067 4.62-4.525 7.196-6.296 11.742 1.847 4.75 3.387 7.319 7.695 11.59ZM9.04 28.313l4.734 1.926c-6.492 17.62-9.908 27.1 22.828 29.183l-.44-16.01c-6.413 1.82-10.026 2.2-16.559 1.626l5.06-8.695 5.25 2.046c-2.512-4.95-4.034-7.488-7.11-11.257-5.007-.67-7.977-.555-13.763 1.181Z" stroke="#344F10"/></svg>